<?xml version="1.0" encoding="utf-8"?>
<!-- Generator: Adobe Illustrator 21.1.0, SVG Export Plug-In . SVG Version: 6.00 Build 0)  -->
<svg version="1.1" id="Layer_1" xmlns="http://www.w3.org/2000/svg" xmlns:xlink="http://www.w3.org/1999/xlink" x="0px" y="0px"
	 viewBox="0 0 504 216" style="enable-background:new 0 0 504 216;" xml:space="preserve">
<style type="text/css">
	.st0{fill:#ED1C24;}
	.st1{fill:#FFFFFF;}
	.st2{fill-rule:evenodd;clip-rule:evenodd;fill:#FFFFFF;}
</style>
<g id="XMLID_32_">
	<rect id="XMLID_30_" x="0.2" class="st0" width="503.7" height="216"/>
	<g id="XMLID_25035_">
		<path id="XMLID_25194_" class="st1" d="M400.6,57.3c0.6-1.4,1.7-2,3.2-2.3c16.3-3.7,32.5-7.4,48.7-11.2c0.4-0.1,0.9-0.1,1.2,0.1
			c0.6,0.3,0.7,1,0.3,1.6c-1,1.8-1.9,3.7-2.9,5.5c-6,11.2-11.9,22.4-17.9,33.5c-0.9,1.7-2.4,2.6-4.1,2.1c-0.6-0.1-1.3-0.5-1.7-0.9
			c-4.3-4.1-8.5-8.2-12.8-12.3c12.1-9,24.2-17.9,36.3-26.9c0,0,0-0.1-0.1-0.1c-13.4,7.8-26.7,15.5-40.1,23.3
			c-3.1-3.1-6.3-6.1-9.4-9.1c-0.4-0.4-0.6-1.1-0.9-1.6c-0.1-0.1-0.1-0.3-0.1-0.5C400.5,58.1,400.5,57.7,400.6,57.3z"/>
		<path id="XMLID_3_" class="st1" d="M412.2,85.8c-1.8,0.9-3.6-0.2-3.7-2.2c-0.2-3.5-0.3-7-0.4-10.5c0-0.4,0-0.7,0-1.2
			c3.7,3.6,7.4,7,11.1,10.6c-0.3,0.2-0.6,0.4-0.8,0.5"/>
	</g>
	<g id="XMLID_25170_">
		<path id="XMLID_25184_" class="st1" d="M268.7,173.1v-66.8c0-5.1,1.4-9,4.3-11.7c2.9-2.7,6.9-4.1,11.9-4.1h19.6
			c4.4,0,7.8,0.9,10.2,2.6c4.1,3.1,6.2,7.2,6.2,12.5v29.9c0,4.7-1.3,8.6-3.9,11.5c-3.4,3.9-7.4,5.8-12,5.8h-25.9v20.3H268.7z
			 M279.2,136.3c0.2,2.1,0.8,3.6,1.8,4.4c1.4,1.2,2.7,1.8,3.8,1.8h20c0.3,0,0.6,0,0.7-0.1c2.8-0.6,4.5-2.2,5-4.9
			c0.1-0.2,0.1-0.6,0.1-1.2v-30.6c-0.2-1.7-0.5-2.8-1.1-3.4c-0.6-0.6-1.7-1.1-3.4-1.4h-19.6c-4.9,0-7.4,2.1-7.4,6.3v27.9
			C279.1,135.7,279.1,136.1,279.2,136.3"/>
		<path id="XMLID_25179_" class="st1" d="M325.9,136.1v-7.5c0-5.6,1.2-10.1,3.7-13.5c2.8-3.9,6.9-5.8,12.3-5.8h25.7v-4.2
			c0-1.1-0.4-2.1-1.2-2.9c-0.8-0.8-1.7-1.3-2.7-1.3h-37.7V90.5h36.9c8.1,0,13.1,3.8,14.8,11.5c0.2,1.3,0.2,2.2,0.2,2.8v32
			c0,2.8-0.8,5.5-2.3,7.9c-3.3,5.3-7.6,7.9-12.9,7.9h-20.8c-3.1,0-6.1-1.1-9-3.2c-2.9-2.1-4.9-4.7-6-7.6
			C326.2,140.3,325.9,138.3,325.9,136.1 M339,141.5c1.2,0.6,3.1,0.9,5.9,0.9h14.1c5.7,0,8.6-2.1,8.6-6.2v-10.1c0-4-2.4-6.2-7.3-6.6
			h-16.6c-4.9,0.6-7.4,2.8-7.4,6.6v10.1C336.2,138.8,337.1,140.6,339,141.5"/>
		<path id="XMLID_25178_" class="st1" d="M382.8,173.1v-10.3h36c3.4-0.6,5.1-2.8,5.1-6.6v-3.3h-26c-4.3,0-7.9-1.5-10.8-4.4
			c-2.9-2.9-4.3-6.5-4.3-10.8V90.5h10.3v44.2c0,5.1,2.5,7.7,7.4,7.7h16.3c4.8,0,7.2-2.2,7.2-6.6V90.5l10.4,0l0,65
			c0,5.4-1.3,9.6-4,12.7c-2.9,3.2-7,4.9-12.3,4.9H382.8z"/>
		<path id="XMLID_25177_" class="st2" d="M41.3,90.6h36.5v7.9h-6.1c-2,0-3.6,1.6-3.6,3.6v39.1c0,2,1.6,3.6,3.6,3.6h6.1v7.9H41.3
			v-7.9h7.1c2,0,3.6-1.6,3.6-3.6v-39.1c0-2-1.6-3.6-3.6-3.6h-7.1V90.6L41.3,90.6z"/>
		<path id="XMLID_25175_" class="st2" d="M84,90.6h32.3l8.2,19l8.2,19l8.2-19l8.2-19h30.9v7.9H173c-2,0-3.6,1.6-3.6,3.6v39.3
			c0,2,1.6,3.6,3.6,3.6h6.9v7.6H143l0-7.7h5.1c0,0,4.5,0.7,4.8-3.6L153,105l-20.5,47.6l0,0.1h-7.4l0-0.1L104.7,105l0.2,36.4
			c0.3,4.3,4.8,3.6,4.8,3.6h5.1l0,7.7H84V145h6.9c2,0,3.6-1.6,3.6-3.6v-39.3c0-2-1.6-3.6-3.6-3.6H84V90.6L84,90.6z"/>
		<path id="XMLID_25174_" class="st2" d="M253.5,152.7h-67.3V145h6.8c2,0,3.6-1.6,3.6-3.6v-39.3c0-2-1.6-3.6-3.6-3.6h-6.8v-7.9h67.3
			v24.3l-0.1,0h-9c0,0-0.5-7.2-2.5-11.8c-2-4.6-11-4.3-11-4.3h-18l-0.1,17.8c11.8,0.3,15,0.9,14.2-10.4l8.9,0l0,29.4h-9
			c0,0,0-1.6-0.2-6.6c-0.2-5.4-8.6-4.2-13.9-4.1v19.6l19.5,0.1c7.6-0.5,9.8-4.3,11.1-8c1.2-3.7,1-10.5,1-10.5l9,0V152.7L253.5,152.7
			z"/>
	</g>
</g>
</svg>
