<svg width="72" height="72" viewBox="0 0 72 72" fill="none" xmlns="http://www.w3.org/2000/svg">
<g clip-path="url(#clip0)">
<path d="M36.0004 65.9955C43.9118 65.9955 51.1031 62.9276 56.4627 57.9229C55.9336 57.2696 55.2193 56.7632 54.3722 56.5091L46.5272 54.1445H25.524L17.6286 56.5091C16.7816 56.7633 16.0673 57.2696 15.5382 57.9229C20.8977 62.9277 28.089 65.9955 36.0004 65.9955Z" fill="#E4EAF6"/>
<path d="M43.4992 46.7129V52.6942L36.0002 58.3628L28.5012 52.6942V46.7129H43.4992Z" fill="#E6AF78"/>
<path d="M28.5012 46.7129V52.6942L30.8133 54.153C40.1119 55.1556 43.4544 47.4269 43.4544 47.4269L43.4625 46.7129H28.5012Z" fill="#D29B6E"/>
<path d="M36 58.3632L27.4299 51.9355L25.2872 55.1494L30.6437 62.6482L36 58.3632Z" fill="#D7DEED"/>
<path d="M35.9998 58.3632L44.5699 51.9355L46.7126 55.1494L41.3561 62.6482L35.9998 58.3632Z" fill="#D7DEED"/>
<path d="M40.1075 50.2527L44.407 46.6696C45.2029 46.0065 45.7315 45.0776 45.895 44.0547L48.3385 28.7835C49.1716 23.5765 45.1494 18.8594 39.876 18.8594H32.1237C26.8503 18.8594 22.8279 23.5765 23.6611 28.7835L26.1046 44.0547C26.2682 45.0775 26.7969 46.0064 27.5926 46.6696L31.8921 50.2527C32.4696 50.7339 33.1978 50.9977 33.9495 50.9977H38.0501C38.802 50.9977 39.53 50.7342 40.1075 50.2527Z" fill="#F0C087"/>
<path d="M33.7172 34.1587C38.6552 33.4643 42.9265 32.0997 45.8781 30.9674C45.8814 30.9678 45.2736 28.1998 45.283 28.2012L44.5706 28.5011C44.5706 28.5011 37.0717 31.5365 28.5015 31.7149H24.1307L26.1052 44.0551C26.2688 45.0779 26.7975 46.0068 27.5932 46.67L31.8928 50.2531C32.4703 50.7343 33.1984 50.9979 33.9501 50.9979H34.9292L33.3363 46.2196C32.9722 45.1273 32.7866 43.9833 32.7866 42.832V35.2147C32.7865 34.6792 33.1872 34.2333 33.7172 34.1587Z" fill="#E6AF78"/>
<path d="M24.8162 36H23.4372C22.8455 36 22.3658 36.4797 22.3658 37.0713V41.3565C22.3658 41.9481 22.8455 42.4278 23.4372 42.4278H25.8447L24.8162 36Z" fill="#707487"/>
<path d="M48.8555 36H47.1843L46.1559 42.4277H48.8555C49.4472 42.4277 49.9269 41.948 49.9269 41.3563V37.0712C49.9267 36.4797 49.4471 36 48.8555 36Z" fill="#707487"/>
<path d="M28.5008 31.7146C37.071 31.5361 44.5699 28.5007 44.5699 28.5007L45.5099 35.0799C45.5853 35.6076 46.0372 35.9997 46.5704 35.9997H47.184L48.3385 28.7835C49.1717 23.5765 45.1494 18.8594 39.876 18.8594H32.1237C26.8503 18.8594 22.8279 23.5765 23.6611 28.7835L24.8158 35.9997H25.6964C26.1022 35.9997 26.4731 35.7705 26.6545 35.4076L28.5008 31.7146Z" fill="#5A4146"/>
<path d="M60.6393 53.2073H54.2117C53.657 53.2073 53.2073 53.657 53.2073 54.2117C53.2073 54.7664 53.6569 55.216 54.2117 55.216H57.7099C57.1148 55.8893 56.4912 56.5297 55.8441 57.1391C55.4743 56.919 55.0787 56.7442 54.6603 56.6187L47.3477 54.4249L45.4058 51.5121C45.2528 51.2824 45.0119 51.126 44.7398 51.0794C44.6611 51.0658 44.5818 51.063 44.5033 51.0682V47.8974L45.0502 47.4417C46.0326 46.623 46.6849 45.4766 46.8871 44.2139L47.0121 43.4322H47.7841C49.5193 43.4322 50.931 42.0205 50.931 40.2853V38.1428C50.931 36.6021 49.8178 35.3173 48.3535 35.0486L49.3304 28.9427C49.7741 26.17 48.9836 23.3543 47.1616 21.2178C45.3396 19.0812 42.6843 17.8555 39.8762 17.8555H32.1239C29.3159 17.8555 26.6604 19.0808 24.8384 21.2175C23.0164 23.3542 22.226 26.1698 22.6696 28.9424L23.6465 35.0484C22.1824 35.3173 21.0691 36.6021 21.0691 38.1428V40.2853C21.0691 42.0205 22.4809 43.4322 24.216 43.4322H24.988L25.1131 44.2139C25.3152 45.4767 25.9674 46.623 26.9499 47.4417L27.4968 47.8975V51.0683C27.4183 51.063 27.339 51.0659 27.2603 51.0795C26.9882 51.1262 26.7473 51.2827 26.5943 51.5123L24.6523 54.4251L17.3397 56.6188C16.923 56.7439 16.5281 56.9173 16.1589 57.1366C15.9369 56.9278 15.7166 56.7165 15.5 56.5001C10.0243 51.0243 7.00858 43.7439 7.00858 36C7.00858 31.3143 8.15207 26.6601 10.3153 22.5407C10.5732 22.0497 10.3841 21.4424 9.89304 21.1846C9.40188 20.9266 8.79484 21.1158 8.53691 21.6068C6.22317 26.0131 5 30.9903 5 36C5 44.2804 8.22448 52.0653 14.0797 57.9203C19.935 63.7753 27.7196 67 36 67C45.1759 67 53.7249 63.0252 59.635 56.0575V60.6393C59.635 61.1939 60.0846 61.6437 60.6393 61.6437C61.194 61.6437 61.6437 61.1941 61.6437 60.6393V54.2117C61.6437 53.6571 61.1939 53.2073 60.6393 53.2073ZM54.1965 58.5798C49.3502 62.5007 43.36 64.7569 37.0044 64.9724V60.5864L40.7291 63.5662C40.9082 63.7094 41.1298 63.7863 41.3565 63.7863C41.4024 63.7863 41.4486 63.7833 41.4945 63.7768C41.7678 63.7389 42.0134 63.5903 42.1737 63.3658L47.1124 56.4514L54.0832 58.5426C54.1214 58.5541 54.1589 58.5669 54.1965 58.5798ZM45.4925 55.2633L41.1554 61.3351L37.6396 58.5225L44.3233 53.5096L45.4925 55.2633ZM48.9223 38.1425V40.2851C48.9223 40.9127 48.4116 41.4233 47.784 41.4233H47.3334L48.0357 37.0334C48.5426 37.1485 48.9223 37.6016 48.9223 38.1425ZM26.3669 22.5207C27.8067 20.8324 29.905 19.8639 32.1239 19.8639H39.8762C42.0951 19.8639 44.1934 20.8322 45.6333 22.5207C47.0729 24.209 47.6978 26.4342 47.347 28.6253L46.4253 34.3855L45.5645 28.3591C45.5225 28.0643 45.3516 27.8034 45.0983 27.6469C44.8451 27.4903 44.5352 27.4543 44.2528 27.5484C44.158 27.5799 34.6944 30.7105 28.5013 30.7105C28.1208 30.7105 27.773 30.9255 27.603 31.2658L25.738 34.9957H25.6725L24.6532 28.6252C24.3025 26.4341 24.9272 24.209 26.3669 22.5207ZM24.216 41.4233C23.5884 41.4233 23.0777 40.9127 23.0777 40.2851V38.1425C23.0777 37.6015 23.4574 37.1484 23.9641 37.0333L24.6666 41.4232H24.216V41.4233ZM25.9937 37.0044H26.3585C26.739 37.0044 27.0868 36.7894 27.2568 36.4492L29.1264 32.7102C34.3238 32.5613 41.0758 30.639 43.7437 29.8176L44.6472 36.142C44.7179 36.6367 45.1416 37.0041 45.6415 37.0041H46.0063L45.2345 41.8286C45.0001 42.0923 42.5605 44.6372 36 44.6372C35.4454 44.6372 34.9956 45.0868 34.9956 45.6415C34.9956 46.1962 35.4453 46.6459 36 46.6459C40.2106 46.6459 42.9656 45.6804 44.6446 44.7481C44.4421 45.1889 44.1427 45.583 43.7643 45.8985L39.4647 49.4815C39.0685 49.8117 38.5661 49.9936 38.0502 49.9936H33.9496C33.4338 49.9936 32.9314 49.8117 32.5351 49.4815L28.2356 45.8985C27.6262 45.3907 27.2217 44.6797 27.0963 43.8964L25.9937 37.0044ZM31.2493 51.0245C32.0057 51.6549 32.9648 52.0022 33.9496 52.0022H38.0502C39.035 52.0022 39.994 51.655 40.7506 51.0245L42.4945 49.5711V52.3703L36 57.2414L29.5054 52.3705V49.5712L31.2493 51.0245ZM27.6766 53.5096L34.3603 58.5225L30.8444 61.3351L26.5073 55.2633L27.6766 53.5096ZM17.9169 58.5426L24.8877 56.4514L29.8264 63.3658C29.9867 63.5902 30.2324 63.7389 30.5056 63.7768C30.5515 63.7832 30.5978 63.7863 30.6437 63.7863C30.8703 63.7863 31.0919 63.7096 31.271 63.5662L34.9958 60.5864V64.9723C28.6678 64.7582 22.6928 62.5249 17.8131 58.5794C17.8479 58.5677 17.8816 58.5531 17.9169 58.5426Z" fill="black"/>
<path d="M57.9203 14.0797C52.0653 8.22448 44.2804 5 36 5C31.0898 5 26.3933 6.11479 22.0407 8.31361C18.3617 10.172 15.0448 12.793 12.365 15.9434V11.3607C12.365 10.8061 11.9154 10.3563 11.3607 10.3563C10.8059 10.3563 10.3563 10.806 10.3563 11.3607V17.7883C10.3563 18.343 10.8059 18.7927 11.3607 18.7927H17.7883C18.3429 18.7927 18.7927 18.3431 18.7927 17.7883C18.7927 17.2336 18.3431 16.784 17.7883 16.784H14.2965C16.7305 14.0417 19.6861 11.7533 22.9463 10.1065C27.0154 8.05084 31.4074 7.00858 36 7.00858C43.7438 7.00858 51.0242 10.0242 56.5001 15.4999C61.9758 20.9758 64.9914 28.2562 64.9914 36C64.9914 40.6857 63.8479 45.34 61.6847 49.4593C61.4268 49.9504 61.6159 50.5576 62.107 50.8155C62.256 50.8937 62.4156 50.9307 62.5729 50.9307C62.9343 50.9307 63.2833 50.7352 63.4628 50.3931C65.7768 45.987 67 41.0098 67 36C67 27.7196 63.7755 19.9347 57.9203 14.0797Z" fill="black"/>
</g>
<defs>
<clipPath id="clip0">
<rect width="62" height="62" fill="white" transform="translate(5 5)"/>
</clipPath>
</defs>
</svg>
