<svg width="72" height="72" viewBox="0 0 72 72" fill="none" xmlns="http://www.w3.org/2000/svg">
<g clip-path="url(#clip0)">
<path d="M60.7301 38.956C60.7301 53.9116 48.6046 66.0356 33.6491 66.0356C29.9803 66.0356 26.4828 65.3062 23.2932 63.9837C14.574 60.3721 8.15172 52.3374 6.82394 42.6778C6.65555 41.4616 6.56946 40.2185 6.56946 38.956C6.56946 23.999 18.6935 11.875 33.6491 11.875C48.6046 11.875 60.7301 23.999 60.7301 38.956Z" fill="#937DE2"/>
<path d="M33.6488 11.875C32.2169 11.875 30.8116 11.9871 29.4398 12.2009C42.3969 14.2231 52.3124 25.4309 52.3124 38.956C52.3124 52.4793 42.3978 63.6866 29.4422 65.7092C30.813 65.9231 32.2174 66.0356 33.6488 66.0356C48.6043 66.0356 60.7298 53.9116 60.7298 38.956C60.7298 23.999 48.6043 11.875 33.6488 11.875V11.875Z" fill="#7570D6"/>
<path d="M64.1108 36.9542L48.6468 47.1942C47.5451 47.9241 46.2107 48.2136 44.9061 48.005C43.5987 47.7968 42.261 48.0825 41.1564 48.8138L39.087 50.1851L27.4974 33.1019L30.3408 20.818C30.5622 19.862 30.6714 18.8928 30.6714 17.9273C30.6714 15.4298 29.9411 12.9644 28.54 10.8481C28.1956 10.3277 28.031 9.73883 28.031 9.15795C28.031 8.16413 28.513 7.18971 29.4037 6.59985C30.6043 5.80422 32.1955 5.95228 33.2291 6.95461L35.071 8.73886C37.1778 10.7828 38.8027 13.2714 39.8235 16.0234L40.8225 18.7125L51.1084 11.9166C52.7512 10.8291 54.9739 11.3045 56.0226 12.9871C57.0344 14.6081 56.515 16.75 54.9209 17.8053C54.9015 17.8181 54.9006 17.8384 54.9067 17.854C54.9157 17.8706 54.9351 17.8824 54.9569 17.8734C55.3632 17.7164 55.7885 17.6407 56.2104 17.6407C56.8835 17.6407 57.5509 17.8346 58.1219 18.2036C58.515 18.4581 58.8631 18.7963 59.1384 19.2111C59.6691 20.0134 59.8276 20.9542 59.654 21.8283C59.3811 23.2063 58.3801 23.9158 58.1834 24.0497C58.1498 24.0728 58.1408 24.1187 58.164 24.1537C58.164 24.1551 58.1654 24.1561 58.1668 24.1561C58.1886 24.1873 58.2335 24.1963 58.2657 24.1755C58.5457 24.1074 58.8309 24.0752 59.1166 24.0752C59.8129 24.0752 60.5059 24.2734 61.0948 24.6485C61.4931 24.903 61.8455 25.2398 62.118 25.6523C63.1875 27.2667 62.7452 29.4431 61.1294 30.5126C61.0896 30.5395 61.0499 30.5665 61.0102 30.592C60.987 30.6105 60.9804 30.6398 60.9922 30.6606C60.9945 30.6654 60.9998 30.6706 61.005 30.6734C61.0229 30.6876 61.0513 30.6885 61.0745 30.6706C62.0782 30.3286 63.1709 30.4842 64.0503 31.0537C64.4552 31.3134 64.8137 31.663 65.0975 32.0925C66.1671 33.7088 65.7252 35.8847 64.1108 36.9542V36.9542Z" fill="#FDD7BD"/>
<path d="M39.2351 53.4271L32.7117 57.7472L23.2933 63.9845C14.5741 60.3725 8.15187 52.3382 6.8241 42.6781L17.7542 35.4399L24.4078 31.0337C25.1736 30.5257 26.2072 30.7366 26.7147 31.5039L39.7053 51.1182C40.2134 51.886 40.0024 52.9181 39.2351 53.4271V53.4271Z" fill="#87DBFF"/>
<path d="M39.2352 53.4271L32.7117 57.7472L17.7543 35.4399L24.4078 31.0337C25.1736 30.5257 26.2072 30.7366 26.7147 31.5039L39.7054 51.1182C40.2134 51.886 40.0024 52.9181 39.2352 53.4271V53.4271Z" fill="#6FC7FF"/>
<path d="M58.1221 18.2035L52.9766 20.957C52.2462 21.3468 51.3413 21.1434 50.8503 20.4788L54.907 17.854C54.916 17.871 54.9354 17.8823 54.9571 17.8734C55.3635 17.7163 55.7887 17.6406 56.2106 17.6406C56.8842 17.6406 57.5512 17.835 58.1221 18.2035V18.2035Z" fill="#FAC5AA"/>
<path d="M61.0953 24.6485L56.0619 27.34C55.3316 27.7307 54.4267 27.5278 53.9357 26.8632L57.9923 24.2384L58.1673 24.1561C58.1891 24.1873 58.234 24.1963 58.2662 24.1755C58.5467 24.1074 58.8319 24.0752 59.1172 24.0752C59.8139 24.0752 60.5069 24.2729 61.0953 24.6485Z" fill="#FAC5AA"/>
<path d="M64.051 31.0542L59.6173 33.4259C58.8889 33.8152 57.9835 33.6123 57.4916 32.9477L61.0057 30.6739C61.0236 30.6881 61.052 30.689 61.0752 30.671C62.079 30.329 63.1716 30.4847 64.051 31.0542Z" fill="#FAC5AA"/>
<path d="M65.9017 31.5607C65.2588 30.59 64.2844 29.9212 63.1515 29.6676C63.8824 28.2698 63.8526 26.5258 62.9216 25.1205C62.2594 24.12 61.2604 23.4739 60.1729 23.2293C60.3668 22.8594 60.5102 22.4602 60.5958 22.0392C60.8332 20.8685 60.6015 19.6755 59.9416 18.6798C59.2988 17.7087 58.3243 17.0398 57.1914 16.7867C57.9223 15.389 57.8925 13.6449 56.9616 12.2391C55.6007 10.1838 52.8202 9.61855 50.7645 10.9799L46.3133 13.9278C43.9407 12.7244 41.4171 11.8706 38.798 11.3843C37.9702 10.1275 37.0076 8.95916 35.93 7.91472L34.0885 6.13001C32.7399 4.82257 30.6251 4.62627 29.0594 5.66361C27.207 6.89015 26.698 9.39528 27.9246 11.2476C27.9728 11.321 28.0201 11.3948 28.067 11.4685C22.0307 12.6899 16.5295 15.8932 12.4577 20.587C8.03917 25.681 5.60547 32.2049 5.60547 38.9568C5.60547 40.251 5.69392 41.5476 5.86894 42.8096C7.21753 52.6206 13.7528 61.0754 22.9238 64.8752C26.3248 66.2848 29.9335 67 33.6482 67C39.5311 67 45.1625 65.1983 49.9339 61.7901C54.6016 58.4553 58.094 53.8533 60.0338 48.4816C60.215 47.9812 59.9553 47.4282 59.4549 47.2475C58.9539 47.0668 58.4014 47.326 58.2207 47.827C56.4143 52.8292 53.1613 57.1148 48.8128 60.2211C44.3706 63.3946 39.1267 65.072 33.6482 65.072C30.8157 65.072 28.0499 64.625 25.4029 63.7432L33.2466 58.549C33.247 58.5485 33.2475 58.5485 33.248 58.548C33.2484 58.548 33.2484 58.5476 33.2489 58.5471L39.7676 54.2303H39.7681C40.3533 53.8424 40.753 53.2502 40.893 52.5619C41.033 51.8737 40.8968 51.1717 40.5089 50.5866L40.4228 50.456L41.6891 49.6174C42.5925 49.019 43.6791 48.7844 44.7491 48.9561C46.2982 49.2049 47.8715 48.8643 49.1789 47.9982L59.6819 41.0429C59.61 41.9539 59.4918 42.8598 59.3267 43.7505C59.2292 44.2741 59.575 44.7774 60.0986 44.8744C60.1578 44.8857 60.2174 44.8909 60.2756 44.8909C60.7311 44.8909 61.136 44.5664 61.2221 44.1024C61.4893 42.6649 61.6431 41.1923 61.6828 39.7179L64.6425 37.7577C65.6382 37.0983 66.3179 36.0903 66.5554 34.9201C66.7933 33.7493 66.5611 32.5564 65.9017 31.5607V31.5607ZM44.4416 15.1671L41.4961 17.1179L40.9161 15.5555C40.674 14.9036 40.3963 14.2646 40.0888 13.6392C41.5831 14.0181 43.0381 14.529 44.4416 15.1671ZM13.9141 21.8504C17.8274 17.3392 23.1579 14.3067 28.9894 13.2551C29.925 15.5219 30.1492 18.0544 29.5901 20.4683L27.2396 30.6227C26.8702 30.2282 26.3906 29.9562 25.8504 29.8464C25.1617 29.7059 24.4602 29.8426 23.875 30.2305L17.2172 34.6391C17.2168 34.6391 17.2168 34.6391 17.2163 34.6396C17.2163 34.6396 17.2158 34.6396 17.2158 34.64L7.61345 40.9989C7.56095 40.3215 7.53351 39.6389 7.53351 38.9568C7.53351 32.6694 9.79976 26.5939 13.9141 21.8504V21.8504ZM39.0037 52.1774C38.9663 52.3609 38.8594 52.5194 38.7029 52.6229H38.7033L32.9779 56.4142L22.3514 40.5665C22.0548 40.1243 21.456 40.0065 21.0137 40.3031C20.5719 40.5997 20.4537 41.198 20.7502 41.6403L31.3701 57.479L23.1967 62.8918C15.0749 59.3394 9.26288 51.8373 7.86557 43.1076L17.4793 36.762L18.5857 38.4129C18.7721 38.6901 19.0767 38.84 19.3875 38.84C19.5719 38.84 19.7588 38.7875 19.9234 38.6768C20.3657 38.3802 20.4839 37.7814 20.1873 37.3391L19.0885 35.7001L24.9398 31.8379C25.0954 31.7343 25.2823 31.6983 25.4658 31.7357C25.6493 31.773 25.8078 31.8799 25.9114 32.036L38.9015 51.6514C39.0047 51.807 39.0411 51.9938 39.0037 52.1774V52.1774ZM64.6662 34.536C64.5309 35.202 64.1444 35.7753 63.5777 36.1504L60.1942 38.3911C60.1932 38.3916 60.1923 38.3925 60.1909 38.393L48.1141 46.3909C47.2107 46.9892 46.1241 47.2243 45.0542 47.0522C43.5055 46.8038 41.9322 47.1439 40.6243 48.01L39.358 48.8487L28.7188 32.7834L31.4689 20.9035C32.1771 17.843 31.8038 14.6193 30.4548 11.811C30.4425 11.7817 30.4292 11.7533 30.4141 11.7254C30.1549 11.1947 29.8607 10.6795 29.5319 10.1829C28.8924 9.21695 29.1577 7.91094 30.1241 7.27094C30.9406 6.73027 32.0437 6.83245 32.7466 7.51407L34.588 9.29926C36.5799 11.2306 38.1433 13.626 39.1083 16.2267L40.1111 18.9281C40.113 18.9333 40.1148 18.9376 40.1167 18.9423C40.1191 18.9485 40.1219 18.9551 40.1243 18.9612C40.1314 18.9778 40.138 18.9929 40.1451 19.0057C40.1645 19.0464 40.1858 19.0866 40.2113 19.1249C40.5056 19.5691 41.1035 19.6906 41.5472 19.3964L51.8293 12.5877C52.9986 11.8134 54.5799 12.1346 55.3542 13.3039C56.1286 14.4732 55.8074 16.0545 54.6381 16.8288L53.7455 17.4201C53.7455 17.4201 53.745 17.4201 53.7445 17.4206L51.7536 18.7394C51.7507 18.7413 51.7488 18.7432 51.746 18.7446C51.7347 18.7526 51.7238 18.7602 51.7148 18.7678C51.3033 19.07 51.1968 19.6447 51.4821 20.0752C51.7758 20.5194 52.3742 20.6409 52.8183 20.3467L54.8107 19.027C55.3769 18.6528 56.0548 18.5208 56.7203 18.6561C57.3859 18.7914 57.9596 19.1779 58.3343 19.7445C58.7094 20.3108 58.8418 20.9895 58.7065 21.6551C58.5713 22.3211 58.1848 22.8944 57.6181 23.2695L54.7336 25.1801C54.2894 25.4738 54.1679 26.0717 54.4621 26.5159C54.6475 26.7959 54.954 26.9477 55.2667 26.9477C55.4493 26.9477 55.6343 26.8957 55.7979 26.7874L56.2445 26.4917L57.7893 25.4686C58.9591 24.6943 60.54 25.0154 61.3143 26.1848C62.0886 27.3545 61.7675 28.9354 60.5982 29.7102L59.1573 30.6643C59.1498 30.669 59.1422 30.6742 59.1346 30.6794L57.7137 31.6203C57.2695 31.914 57.1479 32.5124 57.4421 32.9565C57.6276 33.2366 57.9341 33.3884 58.2468 33.3884C58.4293 33.3884 58.6143 33.3364 58.778 33.2281L59.2245 32.9324C59.2245 32.9324 59.2245 32.932 59.225 32.932L60.7699 31.9093C61.3361 31.5342 62.0144 31.4017 62.6804 31.5375C63.3464 31.6723 63.9197 32.0592 64.2948 32.6254C64.6695 33.1916 64.8014 33.8704 64.6662 34.536V34.536Z" fill="black"/>
</g>
<defs>
<clipPath id="clip0">
<rect width="62" height="62" fill="white" transform="translate(5 5)"/>
</clipPath>
</defs>
</svg>
