<svg width="72" height="72" viewBox="0 0 72 72" fill="none" xmlns="http://www.w3.org/2000/svg">
<path d="M40.7729 48.1579V42.5283H23.3475V48.1579C23.3475 49.2507 22.6347 50.2158 21.5901 50.5371L10.6811 53.8937C8.59211 54.5365 7.16663 56.4666 7.16663 58.6522V63.6878C7.16663 65.0628 8.28111 66.1771 9.65594 66.1771H54.4642C55.8392 66.1771 56.9535 65.0626 56.9535 63.6878V58.6522C56.9535 56.4666 55.528 54.5363 53.439 53.8937L42.53 50.5371C41.4857 50.2158 40.7729 49.2506 40.7729 48.1579Z" fill="#E6AF78"/>
<path d="M53.4392 53.8935L42.591 50.5557L35.7942 56.2197L32.0601 64.9325L28.3261 56.2197L21.5293 50.5557L10.6811 53.8935C8.59211 54.5363 7.16663 56.4664 7.16663 58.652V63.6876C7.16663 65.0626 8.28111 66.1769 9.65594 66.1769H54.4642C55.8392 66.1769 56.9535 65.0624 56.9535 63.6876V58.6522C56.9537 56.4664 55.5282 54.5364 53.4392 53.8935Z" fill="#FFD782"/>
<path d="M21.9102 50.3788C33.7211 54.3178 40.7212 43.3578 40.7212 43.3578L40.7306 42.5283H23.3477V48.1577C23.3477 49.1282 22.7677 49.9713 21.9102 50.3788Z" fill="#D29B6E"/>
<path d="M36.8327 46.6417L41.8282 42.4788C42.7529 41.7083 43.3669 40.6291 43.5571 39.4407L46.396 21.6976C47.3641 15.6477 42.6906 10.167 36.5638 10.167H27.5567C21.4298 10.167 16.7563 15.6477 17.7244 21.6976L20.5634 39.4407C20.7534 40.6291 21.3677 41.7083 22.2923 42.4788L27.2878 46.6417C27.9589 47.2009 28.8047 47.5072 29.6782 47.5072H34.4426C35.3157 47.5073 36.1617 47.2011 36.8327 46.6417Z" fill="#F0C087"/>
<path d="M29.4076 27.9424C35.1447 27.1355 40.1076 25.55 43.5368 24.2346C43.5405 24.235 42.8345 21.0189 42.8454 21.0205L42.0177 21.369C42.0177 21.369 33.3049 24.8957 23.3475 25.103H18.2692L20.5633 39.4406C20.7533 40.629 21.3676 41.7083 22.2922 42.4787L27.2878 46.6417C27.9589 47.2008 28.8046 47.507 29.6781 47.507H30.8156L28.9649 41.9551C28.5418 40.6861 28.3263 39.3569 28.3263 38.0192V29.1691C28.3262 28.5473 28.7917 28.0292 29.4076 27.9424Z" fill="#E6AF78"/>
<path d="M19.0657 30.0811H17.4635C16.7761 30.0811 16.2188 30.6384 16.2188 31.3258V36.3045C16.2188 36.992 16.7761 37.5493 17.4635 37.5493H20.2608L19.0657 30.0811Z" fill="#707487"/>
<path d="M46.9964 30.0811H45.0547L43.8597 37.5491H46.9964C47.6838 37.5491 48.2411 36.9918 48.2411 36.3044V31.3256C48.2411 30.6384 47.6838 30.0811 46.9964 30.0811Z" fill="#707487"/>
<path d="M18.1036 24.0689L19.0656 30.0812H19.9073C20.4686 30.0812 20.9603 29.7055 21.108 29.164L22.5023 24.0518C20.8507 24.1039 19.3615 24.099 18.1036 24.0689Z" fill="#5B5D6E"/>
<path d="M46.1181 17.3418C44.5207 18.6592 42.6696 19.7259 40.6733 20.5882L43.0121 29.164C43.1598 29.7056 43.6515 30.0812 44.2129 30.0812H45.0546L46.396 21.6968C46.6383 20.182 46.5201 18.7065 46.1181 17.3418Z" fill="#5B5D6E"/>
<path d="M46.3739 18.3917C45.5631 13.7875 41.5438 10.167 36.5638 10.167H27.5567C21.4298 10.167 16.7563 15.6477 17.7244 21.6976L18.2955 25.2666C24.0351 25.5299 38.6115 25.4279 46.3739 18.3917Z" fill="#464655"/>
<path d="M23.1512 48.9744L28.3264 56.2196L24.6146 59.0033C23.9694 59.4872 23.0415 59.2392 22.7238 58.4978L19.6136 51.2407L21.1027 49.0072C21.5859 48.2827 22.6448 48.2655 23.1512 48.9744Z" fill="#FFC36E"/>
<path d="M40.9698 48.9744L35.7946 56.2196L39.5063 59.0033C40.1515 59.4872 41.0793 59.2392 41.397 58.4978L44.5072 51.2407L43.0182 49.0072C42.5351 48.2827 41.476 48.2655 40.9698 48.9744Z" fill="#FFC36E"/>
<path d="M15.8798 62.9475C15.8798 61.8393 15.3874 60.7885 14.5362 60.0789L8.62282 55.168C8.6015 55.1893 8.56972 55.2079 8.54482 55.2285C7.68581 56.1326 7.16699 57.3433 7.16699 58.6521V63.6877C7.16699 65.0624 8.28162 66.177 9.6563 66.177H15.8796V62.9475H15.8798Z" fill="#FFC36E"/>
<path d="M48.2415 62.9473C48.2415 61.8391 48.7338 60.7883 49.5851 60.0787L55.4984 55.168C55.5197 55.1893 55.5515 55.2079 55.5764 55.2285C56.4354 56.1326 56.9543 57.3433 56.9543 58.6521V63.6877C56.9543 65.0624 55.8396 66.177 54.4649 66.177H48.2416L48.2415 62.9473Z" fill="#FFC36E"/>
<path d="M53.7411 52.7927L45.245 50.2438L43.989 48.3601C43.5493 47.7006 42.8138 47.2993 42.0213 47.2865C41.9941 47.2861 41.9672 47.2871 41.9402 47.2877V43.9043L42.5756 43.3749C43.7172 42.4237 44.475 41.0917 44.7097 39.6247L44.855 38.7164H45.7519C47.7679 38.7164 49.4081 37.0762 49.4081 35.0602V32.5709C49.4081 30.7809 48.1147 29.2882 46.4134 28.9759L47.5484 21.8816C48.0638 18.6601 47.1454 15.3888 45.0286 12.9062C42.9117 10.4238 39.8264 9 36.5638 9H27.5568C24.2942 9 21.2089 10.4238 19.092 12.9062C16.9751 15.3886 16.0567 18.6603 16.5722 21.8816L17.7072 28.9759C16.006 29.2883 14.7125 30.7809 14.7125 32.5709V35.0602C14.7125 37.0762 16.3527 38.7164 18.3687 38.7164H19.2656L19.4109 39.6247C19.6456 41.0918 20.4036 42.4237 21.545 43.3749L22.1804 43.9044V47.2874C22.1534 47.2871 22.1263 47.2859 22.0993 47.2864C21.3067 47.2991 20.5713 47.7004 20.1317 48.3598L18.8756 50.2437L10.3795 52.7925C7.75996 53.5786 6 55.9441 6 58.679V63.6874C5.99986 65.7035 7.64003 67.3437 9.65618 67.3437H54.4644C56.4805 67.3437 58.1206 65.7035 58.1206 63.6875V58.6791C58.1206 55.9442 56.3607 53.5786 53.7411 52.7927ZM53.5855 55.2255L48.8378 59.1822C47.7171 60.1161 47.0744 61.4884 47.0744 62.9471V65.0101H33.7443L36.3403 58.0875L38.8061 59.9369C39.2298 60.2546 39.7337 60.4203 40.2482 60.4203C40.4572 60.4203 40.668 60.393 40.8758 60.3375C41.5954 60.1451 42.1762 59.6422 42.4696 58.9576L45.1694 52.6579L53.0704 55.0281C53.2492 55.0816 53.4204 55.1492 53.5855 55.2255ZM42.0471 49.6546L43.1855 51.3622L40.3243 58.0384C40.3198 58.0487 40.3095 58.0731 40.2728 58.0829C40.236 58.0926 40.2151 58.0767 40.2061 58.07L37.4065 55.9703L41.9191 49.6527C41.9276 49.641 41.9441 49.6187 41.9837 49.6203C42.0243 49.6205 42.0391 49.6426 42.0471 49.6546ZM44.1619 28.2761L43.1815 21.9907C43.9306 21.5721 44.6519 21.1154 45.3392 20.6184C45.3223 20.9164 45.2915 21.2148 45.2439 21.513L44.1619 28.2761ZM47.0742 32.5706V35.06C47.0742 35.7892 46.481 36.3824 45.7518 36.3824H45.2283L46.0443 31.2818C46.6331 31.4155 47.0742 31.9421 47.0742 32.5706ZM20.8679 14.4201C22.5407 12.4585 24.9787 11.3333 27.5568 11.3333H36.5638C39.1419 11.3333 41.58 12.4584 43.2528 14.4201C44.1212 15.4386 44.7318 16.6256 45.0637 17.8874C41.9146 20.5812 37.3199 22.4418 31.3939 23.42C26.6252 24.2072 22.0277 24.2284 19.2967 24.1382L18.8766 21.513C18.4693 18.9671 19.1952 16.3819 20.8679 14.4201ZM20.061 28.9143L19.6704 26.4735C20.1939 26.4877 20.7598 26.4969 21.3624 26.4986L20.1407 28.9142H20.0608V28.9143H20.061ZM18.3688 36.3824C17.6396 36.3824 17.0464 35.7892 17.0464 35.06V32.5706C17.0464 31.9421 17.4875 31.4157 18.0761 31.282L18.8922 36.3825H18.3688V36.3824ZM20.4342 31.2482H20.8581C21.2982 31.2482 21.701 31.0006 21.8995 30.608L23.9991 26.4565C29.0129 26.2832 35.4868 25.5112 40.9897 23.082L42.1095 30.2611C42.1982 30.8293 42.6874 31.2481 43.2625 31.2481H43.6864L42.7896 36.8534C42.5174 37.1594 39.6829 40.1163 32.0605 40.1163C31.416 40.1163 30.8937 40.6387 30.8937 41.2832C30.8937 41.9276 31.416 42.45 32.0605 42.45C36.9526 42.45 40.1536 41.3282 42.1045 40.2451C41.8691 40.7573 41.5214 41.2152 41.0817 41.5817L36.0862 45.7447C35.6258 46.1284 35.0422 46.3396 34.4428 46.3396H29.6784C29.0792 46.3396 28.4954 46.1284 28.035 45.7447L23.0394 41.5818C22.3316 40.9919 21.8614 40.1657 21.7157 39.2557L20.4342 31.2482ZM26.5406 47.5377C27.4197 48.2702 28.534 48.6737 29.6781 48.6737H34.4425C35.5866 48.6737 36.7009 48.2702 37.58 47.5377L39.6062 45.8492V48.7514C39.6062 48.7904 39.6082 48.8289 39.612 48.8672L34.8448 55.541C34.8395 55.5485 34.8352 55.5565 34.8301 55.5641C34.8173 55.5827 34.805 55.6017 34.7933 55.6213C34.7836 55.6376 34.7744 55.6541 34.7657 55.6709C34.7571 55.6869 34.7488 55.7029 34.7409 55.7194C34.7306 55.7408 34.7214 55.7626 34.7127 55.7843C34.7093 55.7929 34.7051 55.8008 34.7018 55.8095L32.0604 62.8532L29.4189 55.8095C29.4156 55.8008 29.4115 55.7929 29.4081 55.7843C29.3992 55.7624 29.39 55.7407 29.3797 55.7189C29.372 55.7026 29.3637 55.6867 29.3552 55.671C29.3462 55.6541 29.3371 55.6372 29.3271 55.6206C29.3157 55.6014 29.3036 55.5831 29.2913 55.5648C29.286 55.5569 29.2815 55.5486 29.2758 55.5409L24.5086 48.867C24.5123 48.8289 24.5145 48.7903 24.5145 48.7512V45.849L26.5406 47.5377ZM22.0735 49.6545C22.0814 49.6426 22.0963 49.6205 22.1371 49.62C22.1764 49.6184 22.1932 49.6409 22.2016 49.6525L26.7142 55.97L23.9146 58.0697C23.9055 58.0764 23.8844 58.0925 23.8479 58.0826C23.8114 58.0727 23.801 58.0484 23.7964 58.0381L20.9353 51.3619L22.0735 49.6545ZM18.9512 52.6579L21.651 58.9576C21.9444 59.642 22.5254 60.1451 23.2448 60.3373C23.4526 60.3929 23.6633 60.4202 23.8724 60.4202C24.3869 60.4202 24.8909 60.2545 25.3145 59.9367L27.7803 58.0873L30.3763 65.0099H17.0464V62.947C17.0464 61.4883 16.4036 60.1158 15.283 59.182L10.5352 55.2253C10.7004 55.1489 10.8714 55.0816 11.0503 55.0278L18.9512 52.6579ZM8.33359 63.6875V58.6791C8.33359 58.0103 8.50548 57.3783 8.81076 56.8266L13.7888 60.9751C14.3759 61.4643 14.7125 62.183 14.7125 62.9473V65.0102H9.65603C8.92683 65.0099 8.33359 64.4167 8.33359 63.6875ZM55.7869 63.6875C55.7869 64.4167 55.1936 65.0099 54.4644 65.0099H49.408V62.947C49.408 62.1829 49.7446 61.4641 50.3317 60.9748L55.3097 56.8263C55.615 57.3779 55.7869 58.0097 55.7869 58.6788V63.6875Z" fill="black"/>
<path d="M59.5269 22.1309V22.6051C59.5269 22.6467 59.5247 22.6884 59.5202 22.7289C59.4585 23.2869 58.9854 23.7209 58.4111 23.7209H56.7002C56.1259 23.7209 55.6528 23.2869 55.591 22.7289C55.5866 22.6884 55.5844 22.6467 55.5844 22.6051V22.1309C55.732 22.1967 55.8957 22.2331 56.0679 22.2331H59.0434C59.2156 22.2331 59.3793 22.1967 59.5269 22.1309Z" fill="#50758D"/>
<path d="M57.4999 7.43856C57.3458 7.43856 57.2209 7.3137 57.2209 7.1596V5.27896C57.2209 5.12486 57.3458 5 57.4999 5C57.654 5 57.7789 5.12486 57.7789 5.27896V7.1596C57.7789 7.3137 57.654 7.43856 57.4999 7.43856V7.43856Z" fill="#FFE7C9"/>
<path d="M52.4926 9.51275C52.4212 9.51275 52.3498 9.48553 52.2953 9.43107L50.9655 8.1012C50.8566 7.99222 50.8566 7.81562 50.9655 7.70668C51.0745 7.59774 51.2511 7.59781 51.36 7.70668L52.6899 9.03656C52.7988 9.14553 52.7988 9.32213 52.6899 9.43107C52.6354 9.48553 52.564 9.51275 52.4926 9.51275Z" fill="#FFE7C9"/>
<path d="M50.4184 14.5198H48.5377C48.3836 14.5198 48.2588 14.395 48.2588 14.2409C48.2588 14.0868 48.3836 13.9619 48.5377 13.9619H50.4184C50.5725 13.9619 50.6973 14.0868 50.6973 14.2409C50.6973 14.395 50.5725 14.5198 50.4184 14.5198V14.5198Z" fill="#FFE7C9"/>
<path d="M51.1628 20.8574C51.0914 20.8574 51.02 20.8302 50.9655 20.7758C50.8566 20.6668 50.8566 20.4902 50.9655 20.3812L52.2953 19.0514C52.4043 18.9425 52.5809 18.9425 52.6899 19.0514C52.7988 19.1604 52.7988 19.337 52.6899 19.4459L51.36 20.7758C51.3055 20.8302 51.2341 20.8574 51.1628 20.8574V20.8574Z" fill="#FFE7C9"/>
<path d="M63.837 20.8574C63.7656 20.8574 63.6942 20.8302 63.6397 20.7758L62.3099 19.4459C62.2009 19.3369 62.2009 19.1603 62.3099 19.0514C62.4188 18.9425 62.5954 18.9425 62.7044 19.0514L64.0342 20.3812C64.1432 20.4902 64.1432 20.6668 64.0342 20.7758C63.9798 20.8302 63.9084 20.8574 63.837 20.8574V20.8574Z" fill="#FFE7C9"/>
<path d="M66.4618 14.5198H64.5812C64.4271 14.5198 64.3022 14.395 64.3022 14.2409C64.3022 14.0868 64.4271 13.9619 64.5812 13.9619H66.4618C66.6159 13.9619 66.7408 14.0868 66.7408 14.2409C66.7408 14.395 66.6159 14.5198 66.4618 14.5198Z" fill="#FFE7C9"/>
<path d="M62.5071 9.51275C62.4358 9.51275 62.3643 9.48553 62.3099 9.43107C62.2009 9.32209 62.2009 9.1455 62.3099 9.03656L63.6397 7.70668C63.7487 7.59777 63.9253 7.59777 64.0342 7.70668C64.1432 7.81566 64.1432 7.99226 64.0342 8.1012L62.7044 9.43107C62.6499 9.48553 62.5785 9.51275 62.5071 9.51275V9.51275Z" fill="#FFE7C9"/>
<path d="M57.5556 21.8613C57.5556 21.8613 55.732 22.1968 55.5844 22.131V22.6052C55.5844 22.6469 55.5866 22.6885 55.591 22.7291C55.6528 23.287 56.1259 23.721 56.7002 23.721H57.1837C56.6985 23.721 56.2856 23.4112 56.1319 22.9786C56.1059 22.9054 56.1592 22.8284 56.2368 22.8284H59.0434C59.213 22.8284 59.3744 22.793 59.5202 22.7291C59.5247 22.6885 59.5269 22.6469 59.5269 22.6052V22.131C59.3793 22.1968 57.5556 21.8613 57.5556 21.8613Z" fill="#2B597F"/>
<path d="M60.2335 21.043C60.2335 21.528 59.943 21.9457 59.5268 22.1309C59.3791 22.1968 59.2155 22.2332 59.0433 22.2332H56.0677C55.8955 22.2332 55.7319 22.1968 55.5842 22.1309C55.168 21.9457 54.8775 21.528 54.8775 21.043C54.8775 21.043 54.86 19.3045 54.8567 19.2592V19.2577L57.5555 18.8857L60.2234 19.2577L60.2335 21.043Z" fill="#50758D"/>
<path d="M56.9976 22.2333H56.0677C55.8955 22.2333 55.7319 22.1969 55.5842 22.1311C55.168 21.9458 54.8775 21.5281 54.8775 21.0431C54.8775 21.0431 54.86 19.3047 54.8567 19.2593V19.2578H55.7865V19.2593C55.7899 19.3047 55.8074 21.0431 55.8074 21.0431C55.8074 21.5281 56.0979 21.9458 56.5141 22.1311C56.6617 22.1969 56.8253 22.2333 56.9976 22.2333Z" fill="#2B597F"/>
<path d="M60.2336 21.0247H59.2852C59.1312 21.0247 59.0062 20.8997 59.0062 20.7458C59.0062 20.5918 59.1312 20.4668 59.2852 20.4668H60.2307L60.2321 20.7458L60.2336 21.0247Z" fill="#2B597F"/>
<path d="M58.2623 20.7458C58.2623 20.8997 58.1374 21.0247 57.9834 21.0247H54.8773L54.871 20.4668H57.9834C58.1374 20.4668 58.2623 20.5918 58.2623 20.7458V20.7458Z" fill="#2B597F"/>
<path d="M57.5045 8.36592C57.5044 8.36592 57.5044 8.36592 57.5044 8.36592L57.5045 8.36581C54.6319 8.32162 52.2162 10.8252 52.2679 13.6769C52.2679 15.1315 52.844 16.4501 53.7776 17.4093C54.3277 17.975 54.8038 18.498 54.8566 19.2575L60.2234 19.2664C60.2535 18.4846 60.698 17.9564 61.2518 17.3781C62.1675 16.4218 62.7314 15.1163 62.7314 13.6769C62.7313 10.7452 60.3918 8.36853 57.5045 8.36592V8.36592Z" fill="#FAD207"/>
<path d="M60.2234 19.2648V19.2663L54.8566 19.2574C54.8038 18.4979 54.3277 17.9749 53.7776 17.4092C52.844 16.45 52.2679 15.1314 52.2679 13.6768C52.2162 10.8251 54.632 8.32155 57.5045 8.36581C57.6495 8.36581 57.7931 8.37214 57.9352 8.38367C55.2877 8.61576 53.149 10.9921 53.1978 13.6768C53.1978 15.1314 53.7739 16.45 54.7075 17.4092C55.2576 17.9749 55.7337 18.4979 55.7865 19.2574L60.2234 19.2648Z" fill="#FAA515"/>
<path d="M57.6313 16.3352C57.52 16.4786 57.3509 16.5654 57.1695 16.5721C57.1619 16.5724 57.1542 16.5725 57.1466 16.5725C56.9734 16.5725 56.8079 16.4993 56.6913 16.3703L54.9432 14.4363C54.7159 14.1848 54.7355 13.7967 54.987 13.5695C55.2384 13.3422 55.6264 13.3618 55.8538 13.6132L57.111 15.0041L59.1167 12.4209C59.3246 12.1532 59.7101 12.1047 59.9778 12.3126C60.2456 12.5205 60.2941 12.906 60.0862 13.1737L57.6313 16.3352Z" fill="#FAA515"/>
<path d="M57.4999 7.43856C57.654 7.43856 57.7789 7.3137 57.7789 7.1596V5.27896C57.7789 5.12486 57.654 5 57.4999 5C57.3458 5 57.2209 5.12486 57.2209 5.27896V7.1596C57.2209 7.3137 57.3458 7.43856 57.4999 7.43856V7.43856Z" fill="black"/>
<path d="M52.2953 9.43107C52.4043 9.53998 52.5809 9.53998 52.6899 9.43107C52.7988 9.32209 52.7988 9.1455 52.6899 9.03656L51.36 7.70668C51.2511 7.59781 51.0745 7.59774 50.9655 7.70668C50.8566 7.81566 50.8566 7.99226 50.9655 8.1012L52.2953 9.43107Z" fill="black"/>
<path d="M50.4184 13.9619H48.5377C48.3836 13.9619 48.2588 14.0868 48.2588 14.2409C48.2588 14.395 48.3836 14.5198 48.5377 14.5198H50.4184C50.5725 14.5198 50.6973 14.395 50.6973 14.2409C50.6973 14.0868 50.5725 13.9619 50.4184 13.9619V13.9619Z" fill="black"/>
<path d="M52.2953 19.0514L50.9655 20.3812C50.8566 20.4902 50.8566 20.6668 50.9655 20.7757C51.0745 20.8846 51.251 20.8846 51.36 20.7757L52.6899 19.4459C52.7988 19.3369 52.7988 19.1603 52.6899 19.0514C52.5809 18.9425 52.4043 18.9425 52.2953 19.0514Z" fill="black"/>
<path d="M62.7044 19.0514C62.5954 18.9425 62.4188 18.9425 62.3099 19.0514C62.2009 19.1604 62.2009 19.337 62.3099 19.4459L63.6397 20.7758C63.7487 20.8847 63.9252 20.8847 64.0342 20.7758C64.1432 20.6668 64.1432 20.4902 64.0342 20.3812L62.7044 19.0514Z" fill="black"/>
<path d="M66.4618 13.9619H64.5812C64.4271 13.9619 64.3022 14.0868 64.3022 14.2409C64.3022 14.395 64.4271 14.5198 64.5812 14.5198H66.4618C66.6159 14.5198 66.7408 14.395 66.7408 14.2409C66.7408 14.0868 66.6159 13.9619 66.4618 13.9619Z" fill="black"/>
<path d="M63.6397 7.70668L62.3099 9.03656C62.2009 9.14553 62.2009 9.32213 62.3099 9.43107C62.4188 9.53998 62.5954 9.53998 62.7044 9.43107L64.0342 8.1012C64.1432 7.99222 64.1432 7.81562 64.0342 7.70668C63.9252 7.59777 63.7486 7.59777 63.6397 7.70668V7.70668Z" fill="black"/>
<path d="M63.0105 13.6769C63.0105 10.5946 60.5384 8.08691 57.4998 8.08691C56.4354 8.08691 55.4022 8.39537 54.5122 8.9789C53.6462 9.54667 52.9559 10.3454 52.5159 11.2888C52.4507 11.4284 52.5111 11.5944 52.6507 11.6595C52.7905 11.7247 52.9564 11.6642 53.0215 11.5247C53.8375 9.77523 55.5953 8.64483 57.4998 8.64483C60.2308 8.64483 62.4526 10.9022 62.4526 13.6769C62.4526 14.9949 61.9546 16.2409 61.0503 17.1853C60.5291 17.7297 60.0855 18.2498 59.9713 18.9786H55.1012C54.9573 18.222 54.4413 17.6912 53.9775 17.2147C53.055 16.2666 52.5469 15.0102 52.5469 13.6769C52.5469 13.3477 52.5784 13.0185 52.6405 12.6983C52.6699 12.5471 52.571 12.4007 52.4198 12.3713C52.2685 12.3422 52.1221 12.4408 52.0928 12.5921C52.0239 12.9472 51.989 13.3122 51.989 13.6769C51.989 15.1563 52.5532 16.5509 53.5777 17.6037C54.1661 18.2084 54.5826 18.691 54.5826 19.3984C54.5826 19.4009 54.5826 19.4034 54.5827 19.4058L54.5987 21.0429C54.5987 21.574 54.882 22.0401 55.3054 22.2982V22.605C55.3054 23.3741 55.931 23.9998 56.7001 23.9998H58.4111C59.1802 23.9998 59.8058 23.3741 59.8058 22.605V22.2982C60.2292 22.0401 60.5125 21.574 60.5125 21.0429C60.5125 21.0429 60.5106 19.2194 60.5068 19.2012C60.5598 18.5547 60.9517 18.0952 61.4533 17.5712C62.4575 16.5223 63.0105 15.1393 63.0105 13.6769V13.6769ZM59.2479 22.605C59.2479 23.0664 58.8725 23.4419 58.411 23.4419H56.7001C56.2387 23.4419 55.8632 23.0664 55.8632 22.605V22.4975C55.9301 22.5069 55.9984 22.512 56.0678 22.512H59.0433C59.1128 22.512 59.181 22.5068 59.2479 22.4975V22.605ZM59.0433 21.9541H56.0678C55.5653 21.9541 55.1565 21.5454 55.1565 21.0429V21.0243H57.9833C58.1374 21.0243 58.2623 20.8994 58.2623 20.7453C58.2623 20.5912 58.1374 20.4664 57.9833 20.4664H55.1565V19.5365H59.946L59.9546 20.4664H59.2851C59.131 20.4664 59.0061 20.5912 59.0061 20.7453C59.0061 20.8994 59.131 21.0243 59.2851 21.0243H59.9546V21.0429C59.9546 21.5454 59.5458 21.9541 59.0433 21.9541V21.9541Z" fill="black"/>
<path d="M59.3134 13.7137C59.2189 13.8354 59.241 14.0106 59.3627 14.1051C59.4843 14.1996 59.6595 14.1776 59.7541 14.0559L60.3063 13.3447C60.4526 13.1564 60.5167 12.9224 60.4869 12.6858C60.4571 12.4492 60.337 12.2384 60.1487 12.0921C59.9604 11.9459 59.7262 11.8814 59.4898 11.9116C59.2532 11.9413 59.0424 12.0614 58.8962 12.2498L57.0945 14.5701L56.0605 13.426C55.7304 13.0609 55.1648 13.0324 54.7998 13.3624C54.6229 13.5223 54.5188 13.7415 54.5068 13.9796C54.4948 14.2177 54.5762 14.4463 54.736 14.6232L56.4842 16.5573C56.8361 16.9655 57.5314 16.9405 57.8515 16.5062L58.9556 15.0843C59.0501 14.9626 59.028 14.7874 58.9064 14.6929C58.7847 14.5984 58.6095 14.6204 58.515 14.7421L57.4109 16.1641C57.291 16.3269 57.0295 16.3364 56.8981 16.1832L55.15 14.2491C55.0262 14.1122 55.0369 13.9001 55.1739 13.7763C55.3108 13.6527 55.5229 13.6633 55.6467 13.8002L56.9039 15.1912C57.0134 15.3182 57.2312 15.3109 57.3312 15.1752L59.3369 12.592C59.4443 12.4476 59.6669 12.4196 59.8066 12.5329C59.951 12.6403 59.979 12.8628 59.8657 13.0026L59.3134 13.7137Z" fill="black"/>
</svg>
