<svg width="16" height="16" viewBox="0 0 16 16" fill="none" xmlns="http://www.w3.org/2000/svg">
<path d="M13.6569 2.34314C14.4379 3.12419 14.4379 4.39052 13.6569 5.17157L6.27044 12.558C5.95004 12.8784 5.54859 13.1057 5.10901 13.2156L2.81801 13.7884C2.45182 13.8799 2.12013 13.5482 2.21167 13.182L2.78442 10.891C2.89432 10.4514 3.12161 10.05 3.44201 9.7296L10.8285 2.34314C11.6095 1.56209 12.8759 1.56209 13.6569 2.34314ZM10.1213 4.46435L4.14912 10.4367C3.95688 10.6289 3.8205 10.8698 3.75457 11.1336L3.38393 12.6161L4.86648 12.2455C5.13022 12.1795 5.37109 12.0432 5.56333 11.8509L11.5353 5.87835L10.1213 4.46435ZM11.5356 3.05025L10.8283 3.75735L12.2423 5.17135L12.9498 4.46446C13.3403 4.07394 13.3403 3.44077 12.9498 3.05025C12.5593 2.65972 11.9261 2.65972 11.5356 3.05025Z" fill="#212121"/>
</svg>
