<svg width="16" height="17" viewBox="0 0 16 17" fill="none" xmlns="http://www.w3.org/2000/svg">
<path d="M8 5.5C8.27614 5.5 8.5 5.72386 8.5 6V8H10.5C10.7761 8 11 8.22386 11 8.5C11 8.77614 10.7761 9 10.5 9H8.5V11C8.5 11.2761 8.27614 11.5 8 11.5C7.72386 11.5 7.5 11.2761 7.5 11V9H5.5C5.22386 9 5 8.77614 5 8.5C5 8.22386 5.22386 8 5.5 8H7.5V6C7.5 5.72386 7.72386 5.5 8 5.5Z" fill="white"/>
<path d="M2 8.5C2 5.18629 4.68629 2.5 8 2.5C11.3137 2.5 14 5.18629 14 8.5C14 11.8137 11.3137 14.5 8 14.5C4.68629 14.5 2 11.8137 2 8.5ZM8 3.5C5.23858 3.5 3 5.73858 3 8.5C3 11.2614 5.23858 13.5 8 13.5C10.7614 13.5 13 11.2614 13 8.5C13 5.73858 10.7614 3.5 8 3.5Z" fill="white"/>
</svg>
