<svg width="20" height="20" viewBox="0 0 20 20" fill="none" xmlns="http://www.w3.org/2000/svg">
<path d="M17.5 14.9987C17.5 15.4589 17.1269 15.832 16.6667 15.832L3.33333 15.832C2.8731 15.832 2.5 15.4589 2.5 14.9987C2.5 14.5385 2.8731 14.1654 3.33333 14.1654L16.6667 14.1654C17.1269 14.1654 17.5 14.5385 17.5 14.9987ZM13.3333 11.6654C13.3333 12.1256 12.9602 12.4987 12.5 12.4987L3.33333 12.4987C2.8731 12.4987 2.5 12.1256 2.5 11.6654C2.5 11.2051 2.8731 10.832 3.33333 10.832L12.5 10.832C12.9602 10.832 13.3333 11.2051 13.3333 11.6654ZM13.3333 8.33203C13.3333 8.79227 12.9602 9.16536 12.5 9.16536L3.33333 9.16536C2.8731 9.16536 2.5 8.79227 2.5 8.33203C2.5 7.87179 2.8731 7.4987 3.33333 7.4987L12.5 7.4987C12.9602 7.4987 13.3333 7.87179 13.3333 8.33203ZM3.33333 4.16536L16.6667 4.16536C17.1269 4.16536 17.5 4.53846 17.5 4.9987C17.5 5.45894 17.1269 5.83203 16.6667 5.83203L3.33333 5.83203C2.8731 5.83203 2.5 5.45893 2.5 4.9987C2.5 4.53846 2.8731 4.16536 3.33333 4.16536ZM17.2559 10.6594C17.5814 10.9849 17.5814 11.5125 17.2559 11.838C16.9305 12.1634 16.4028 12.1634 16.0774 11.838L14.8274 10.588C14.502 10.2625 14.502 9.73488 14.8274 9.40944L16.0774 8.15944C16.4028 7.834 16.9305 7.834 17.2559 8.15944C17.5814 8.48488 17.5814 9.01252 17.2559 9.33795L16.5952 9.9987L17.2559 10.6594Z" fill="#212121"/>
</svg>
