<svg width="16" height="16" viewBox="0 0 16 16" fill="none" xmlns="http://www.w3.org/2000/svg">
<path d="M4.15828 2.00055C4.80262 2.00055 5.32495 2.52289 5.32495 3.16722V12.8339C5.32495 13.4782 4.80262 14.0006 4.15828 14.0006H2.49162C1.84729 14.0006 1.32495 13.4782 1.32495 12.8339V3.16722C1.32495 2.5551 1.79636 2.05309 2.39593 2.00442L2.49162 2.00055H4.15828ZM13.509 2.00055C14.1533 2.00055 14.6757 2.52289 14.6757 3.16722V12.8339C14.6757 13.4782 14.1533 14.0006 13.509 14.0006H11.8423C11.198 14.0006 10.6757 13.4782 10.6757 12.8339V3.16722C10.6757 2.52289 11.198 2.00055 11.8423 2.00055H13.509ZM8.82495 2C9.46928 2 9.99162 2.52233 9.99162 3.16667V12.8333C9.99162 13.4777 9.46928 14 8.82495 14H7.15828C6.51395 14 5.99162 13.4777 5.99162 12.8333V3.16667C5.99162 2.52233 6.51395 2 7.15828 2H8.82495ZM4.15828 3.00055H2.49162L2.4534 3.00496C2.37977 3.02223 2.32495 3.08832 2.32495 3.16722V12.8339C2.32495 12.9259 2.39957 13.0006 2.49162 13.0006H4.15828C4.25033 13.0006 4.32495 12.9259 4.32495 12.8339V3.16722C4.32495 3.07517 4.25033 3.00055 4.15828 3.00055ZM13.509 3.00055H11.8423C11.7503 3.00055 11.6757 3.07517 11.6757 3.16722V12.8339C11.6757 12.9259 11.7503 13.0006 11.8423 13.0006H13.509C13.601 13.0006 13.6757 12.9259 13.6757 12.8339V3.16722C13.6757 3.07517 13.601 3.00055 13.509 3.00055ZM8.82495 3H7.15828C7.06624 3 6.99162 3.07462 6.99162 3.16667V12.8333C6.99162 12.9254 7.06624 13 7.15828 13H8.82495C8.917 13 8.99162 12.9254 8.99162 12.8333V3.16667C8.99162 3.07462 8.917 3 8.82495 3Z" fill="#253254"/>
</svg>
