<svg width="20" height="20" viewBox="0 0 20 20" fill="none" xmlns="http://www.w3.org/2000/svg">
<path d="M3.125 4.16797C2.77982 4.16797 2.5 4.44779 2.5 4.79297C2.5 5.13815 2.77982 5.41797 3.125 5.41797H16.875C17.2202 5.41797 17.5 5.13815 17.5 4.79297C17.5 4.44779 17.2202 4.16797 16.875 4.16797H3.125ZM7.29167 7.5013C6.94649 7.5013 6.66667 7.78112 6.66667 8.1263C6.66667 8.47148 6.94649 8.7513 7.29167 8.7513H16.875C17.2202 8.7513 17.5 8.47148 17.5 8.1263C17.5 7.78112 17.2202 7.5013 16.875 7.5013H7.29167ZM6.66667 11.4596C6.66667 11.1145 6.94649 10.8346 7.29167 10.8346H16.875C17.2202 10.8346 17.5 11.1145 17.5 11.4596C17.5 11.8048 17.2202 12.0846 16.875 12.0846H7.29167C6.94649 12.0846 6.66667 11.8048 6.66667 11.4596ZM3.125 14.168C2.77982 14.168 2.5 14.4478 2.5 14.793C2.5 15.1381 2.77982 15.418 3.125 15.418H16.875C17.2202 15.418 17.5 15.1381 17.5 14.793C17.5 14.4478 17.2202 14.168 16.875 14.168H3.125ZM2.68306 9.19324C2.43898 8.94917 2.43898 8.55344 2.68306 8.30936C2.92714 8.06528 3.32286 8.06528 3.56694 8.30936L4.81694 9.55936C5.06102 9.80344 5.06102 10.1992 4.81694 10.4432L3.56694 11.6932C3.32286 11.9373 2.92714 11.9373 2.68306 11.6932C2.43898 11.4492 2.43898 11.0534 2.68306 10.8094L3.49112 10.0013L2.68306 9.19324Z" fill="#212121"/>
</svg>
