<svg width="32" height="32" viewBox="0 0 32 32" fill="none" xmlns="http://www.w3.org/2000/svg">
<path d="M7 4.66064H24.9969C25.5492 4.66064 25.9969 4.21293 25.9969 3.66064C25.9969 3.15438 25.6207 2.73599 25.1326 2.66977L24.9969 2.66064H7C6.44772 2.66064 6 3.10836 6 3.66064C6 4.16691 6.37621 4.5853 6.86431 4.65151L7 4.66064ZM15.8445 29.3242L16 29.3332C16.6838 29.3332 17.2473 28.8185 17.3244 28.1553L17.3333 27.9998V11.2132L21.7254 15.6036C22.2061 16.0841 22.9624 16.121 23.4854 15.7143L23.611 15.6034C24.0916 15.1227 24.1285 14.3663 23.7218 13.8433L23.6108 13.7177L16.9473 7.05559C16.4669 6.57526 15.7111 6.5381 15.188 6.94426L15.0624 7.05504L8.39117 13.7172C7.87011 14.2375 7.86954 15.0818 8.38988 15.6028C8.8702 16.0838 9.62648 16.1213 10.1498 15.7149L10.2755 15.6041L14.6667 11.2198V27.9998C14.6667 28.6836 15.1814 29.2472 15.8445 29.3242Z" fill="#212121"/>
</svg>
